Patient4_TMGait_0pt3_03_left_25_GRF.mot
version=1
nRows=71
nColumns=19
inDegrees=no
endheader
time	F1x	F1y	F1z	M1x	M1y	M1z	F2x	F2y	F2z	M2x	M2y	M2z	EC1x	EC1y	EC1z	EC2x	EC2y	EC2z
43.86	1.5843	-1.2881	-0.58854	1.1168	1.7186	-3.1589	-12.6159	742.1122	-46.923	248.4683	52.9082	698.1818	-0.0592	0.0182	-0.0073	-0.0462	0.0165	0.9585
43.8785	1.0565	-0.80646	-0.43829	0.74721	1.2029	-2.1015	-12.8524	757.8754	-48.0749	254.1753	53.596	711.0236	-0.0592	0.0182	-0.0073	-0.0462	0.0165	0.9585
43.897	0.61848	-0.38595	-0.29407	0.42159	0.748	-1.1736	-13.2961	779.361	-49.2473	261.778	54.2748	728.6321	-0.0592	0.0182	-0.0073	-0.0462	0.0165	0.9585
43.9155	0.29195	-0.050648	-0.17149	0.16245	0.38555	-0.4304	-13.8737	805.845	-50.3898	270.9878	54.8796	750.3876	-0.0592	0.0182	-0.0073	-0.0462	0.0165	0.9585
43.934	0.069499	0.19931	-0.075568	-0.027362	0.11991	0.1162	-14.4148	835.2385	-51.4673	281.0678	55.333	774.4362	-0.0592	0.0182	-0.0073	-0.0462	0.0165	0.9585
43.9525	-0.070091	0.36925	-0.0044279	-0.15363	-0.061842	0.47861	-14.7107	864.21	-52.4467	290.8748	55.5472	797.8086	-0.0592	0.0182	-0.0073	-0.0462	0.0165	0.9585
43.971	-0.15132	0.45998	0.051228	-0.22454	-0.18349	0.67532	-14.5965	888.7828	-53.2738	299.0617	55.4291	816.9673	-0.0592	0.0182	-0.0073	-0.0462	0.0165	0.9585
43.9895	-0.1994	0.46448	0.098033	-0.24419	-0.26644	0.71618	-13.9678	905.2429	-53.8613	304.3835	54.8778	828.6258	-0.0592	0.0182	-0.0073	-0.0462	0.0165	0.9585
44.008	-0.23568	0.36228	0.13648	-0.20885	-0.32322	0.59844	-12.7671	910.9882	-54.1122	305.985	53.803	830.5088	-0.0592	0.0182	-0.0073	-0.0462	0.0165	0.9585
44.0265	-0.27631	0.11582	0.16518	-0.10767	-0.36247	0.30551	-10.9734	905.0632	-53.9474	303.579	52.1483	821.8192	-0.0592	0.0182	-0.0073	-0.0462	0.0165	0.9585
44.045	-0.33027	-0.32157	0.18065	0.072724	-0.38917	-0.19235	-8.5926	888.2731	-53.3238	297.4771	49.9029	803.3321	-0.0592	0.0182	-0.0073	-0.0462	0.0165	0.9585
44.0635	-0.40212	-0.99436	0.17784	0.34561	-0.40482	-0.92466	-5.6662	862.8953	-52.2522	288.484	47.12	777.1326	-0.0592	0.0182	-0.0073	-0.0462	0.0165	0.9585
44.082	-0.49099	-1.932	0.15238	0.71863	-0.40598	-1.9029	-2.2781	832.1448	-50.8058	277.7125	43.92	746.1359	-0.0592	0.0182	-0.0073	-0.0462	0.0165	0.9585
44.1005	-0.58364	-3.1195	0.10039	1.1843	-0.38378	-3.1033	1.4569	799.5849	-49.1093	266.381	40.4737	713.548	-0.0592	0.0182	-0.0073	-0.0462	0.0165	0.9585
44.119	-0.64761	-4.4561	0.016756	1.7033	-0.32236	-4.4303	5.4049	768.6129	-47.3091	255.6423	36.9694	682.4083	-0.0592	0.0182	-0.0073	-0.0462	0.0165	0.9585
44.1375	-0.63176	-5.7118	-0.10013	2.1863	-0.20045	-5.6745	9.4091	742.0023	-45.5553	246.4316	33.5939	655.1836	-0.0592	0.0182	-0.0073	-0.0462	0.0165	0.9585
44.156	-0.46635	-6.486	-0.24951	2.477	0.0090309	-6.4603	13.3092	721.5719	-43.9836	239.3595	30.5138	633.4808	-0.0592	0.0182	-0.0073	-0.0462	0.0165	0.9585
44.1745	-0.067599	-6.1713	-0.42934	2.3368	0.33752	-6.1986	16.9611	708.0302	-42.7007	234.6607	27.858	617.9205	-0.0592	0.0182	-0.0073	-0.0462	0.0165	0.9585
44.193	0.65414	-3.9252	-0.62203	1.4337	0.8043	-4.0527	20.2454	700.9716	-41.7772	232.1914	25.7138	608.1479	-0.0592	0.0182	-0.0073	-0.0462	0.0165	0.9585
44.2115	1.778	1.313	-0.7864	-0.65052	1.4006	1.0373	23.0762	699.036	-41.2432	231.4854	24.1219	602.9821	-0.0592	0.0182	-0.0073	-0.0462	0.0165	0.9585
44.23	3.352	10.7381	-0.85509	-4.383	2.0784	10.2678	25.3984	700.1948	-41.0726	231.8502	23.0659	600.6746	-0.0592	0.0182	-0.0073	-0.0462	0.0165	0.9585
44.2485	5.3532	25.478	-0.72911	-10.1975	2.7281	24.7884	27.1704	702.0722	-41.1837	232.4746	22.4785	599.1996	-0.0592	0.0182	-0.0073	-0.0462	0.0165	0.9585
44.267	7.5891	46.277	-0.27615	-18.372	3.138	45.3838	28.3619	702.2628	-41.4487	232.5369	22.251	596.5325	-0.0592	0.0182	-0.0073	-0.0462	0.0165	0.9585
44.2855	9.5066	73.085	0.65466	-28.8675	2.9373	72.064	28.9616	698.6165	-41.7063	231.303	22.2413	590.8841	-0.0592	0.0182	-0.0073	-0.0462	0.0165	0.9585
44.304	10.2448	104.6953	2.2404	-41.1856	1.6158	103.7221	28.9857	689.4757	-41.7908	228.2075	22.2949	580.8909	-0.0592	0.0182	-0.0073	-0.0462	0.0165	0.9585
44.3225	9.3763	138.9093	4.6537	-54.4346	-1.1621	138.2667	28.488	673.9192	-41.575	222.9362	22.2807	565.8055	-0.0592	0.0182	-0.0073	-0.0462	0.0165	0.9585
44.341	7.0734	173.0837	7.8833	-67.5651	-5.3193	173.0901	27.563	651.9243	-41.0003	215.4809	22.1163	545.6192	-0.0592	0.0182	-0.0073	-0.0462	0.0165	0.9585
44.3595	3.7511	205.1642	11.5289	-79.7898	-10.2853	206.127	26.3353	624.3264	-40.0822	206.1267	21.7751	521.0206	-0.0592	0.0182	-0.0073	-0.0462	0.0165	0.9585
44.378	-0.28952	234.6533	15.0744	-90.9386	-15.4152	236.8791	24.9411	592.5264	-38.886	195.3537	21.2701	493.1488	-0.0592	0.0182	-0.0073	-0.0462	0.0165	0.9585
44.3965	-4.9125	262.4935	18.2435	-101.3923	-20.3821	266.2803	23.4979	558.0201	-37.4611	183.679	20.6117	463.213	-0.0592	0.0182	-0.0073	-0.0462	0.0165	0.9585
44.415	-10.0068	290.1478	20.9871	-111.7235	-25.1009	295.7387	22.0747	522.048	-35.7963	171.5399	19.7801	432.2193	-0.0592	0.0182	-0.0073	-0.0462	0.0165	0.9585
44.4335	-15.3146	318.7445	23.4586	-122.367	-29.636	326.2587	20.6926	485.4672	-33.8587	159.246	18.7499	400.8675	-0.0592	0.0182	-0.0073	-0.0462	0.0165	0.9585
44.452	-20.4128	348.6869	25.8706	-133.4767	-34.0413	358.0561	19.3344	448.7992	-31.6595	146.9862	17.5366	369.5846	-0.0592	0.0182	-0.0073	-0.0462	0.0165	0.9585
44.4705	-24.8677	379.605	28.3788	-144.9135	-38.3026	390.561	17.9602	412.4035	-29.2702	134.8837	16.2075	338.671	-0.0592	0.0182	-0.0073	-0.0462	0.0165	0.9585
44.489	-28.3521	410.5889	31.0053	-156.3371	-42.3116	422.7001	16.5416	376.6645	-26.7937	123.0613	14.8459	308.4489	-0.0592	0.0182	-0.0073	-0.0462	0.0165	0.9585
44.5075	-30.6768	440.6456	33.6429	-167.3816	-45.8827	453.3752	15.0912	342.0739	-24.3219	111.6745	13.5112	279.3214	-0.0592	0.0182	-0.0073	-0.0462	0.0165	0.9585
44.526	-31.8143	469.0271	36.1575	-177.7727	-48.8633	481.8122	13.6703	309.215	-21.9191	100.9077	12.2265	251.7544	-0.0592	0.0182	-0.0073	-0.0462	0.0165	0.9585
44.5445	-31.9093	495.308	38.4468	-187.3508	-51.1982	507.6362	12.3719	278.6867	-19.6343	90.9502	10.9953	226.2254	-0.0592	0.0182	-0.0073	-0.0462	0.0165	0.9585
44.563	-31.2241	519.3286	40.448	-196.0535	-52.9164	530.7773	11.2855	250.9964	-17.5135	81.9583	9.8212	203.1425	-0.0592	0.0182	-0.0073	-0.0462	0.0165	0.9585
44.5815	-30.0348	541.0996	42.1337	-203.886	-54.0903	551.3411	10.4564	226.473	-15.6082	74.0265	8.7275	182.7615	-0.0592	0.0182	-0.0073	-0.0462	0.0165	0.9585
44.6	-28.5689	560.683	43.5125	-210.8776	-54.813	569.4732	9.8754	205.1923	-13.967	67.1651	7.7531	165.1324	-0.0592	0.0182	-0.0073	-0.0462	0.0165	0.9585
44.6185	-26.9728	578.1152	44.6162	-217.0558	-55.1725	585.2715	9.4992	186.9645	-12.6227	61.2972	6.935	150.0832	-0.0592	0.0182	-0.0073	-0.0462	0.0165	0.9585
44.637	-25.3105	593.403	45.4771	-222.4416	-55.2241	598.7784	9.2607	171.3846	-11.5847	56.2766	6.3005	137.2614	-0.0592	0.0182	-0.0073	-0.0462	0.0165	0.9585
44.6555	-23.5981	606.5594	46.1374	-227.0595	-55.0122	610.0244	9.0743	157.8718	-10.8399	51.9027	5.8649	126.1769	-0.0592	0.0182	-0.0073	-0.0462	0.0165	0.9585
44.674	-21.8342	617.6852	46.6698	-230.9614	-54.6031	619.1109	8.8429	145.7169	-10.3558	47.9379	5.6307	116.2504	-0.0592	0.0182	-0.0073	-0.0462	0.0165	0.9585
44.6925	-20.0246	627.1302	47.1707	-234.2885	-54.0911	626.3658	8.4674	134.1741	-10.0807	44.138	5.5841	106.8806	-0.0592	0.0182	-0.0073	-0.0462	0.0165	0.9585
44.711	-18.2058	635.6418	47.7346	-237.3293	-53.5842	632.4889	7.8523	122.5896	-9.9457	40.2934	5.6966	97.5403	-0.0592	0.0182	-0.0073	-0.0462	0.0165	0.9585
44.7295	-16.4448	644.3971	48.447	-240.5333	-53.1946	638.5879	6.9357	110.5121	-9.858	36.265	5.9159	87.8603	-0.0592	0.0182	-0.0073	-0.0462	0.0165	0.9585
44.748	-14.8336	654.8849	49.3877	-244.4613	-53.0379	646.0694	5.699	97.7632	-9.7143	32.0067	6.1709	77.6902	-0.0592	0.0182	-0.0073	-0.0462	0.0165	0.9585
44.7665	-13.4877	668.6566	50.6298	-249.6904	-53.2345	656.4099	4.1696	84.4439	-9.4179	27.5655	6.3847	67.1054	-0.0592	0.0182	-0.0073	-0.0462	0.0165	0.9585
44.785	-12.533	686.9833	52.2388	-256.6842	-53.8974	670.8235	2.4394	70.8756	-8.8986	23.0596	6.4798	56.3551	-0.0592	0.0182	-0.0073	-0.0462	0.0165	0.9585
44.8035	-12.0506	710.5322	54.2595	-265.6719	-55.0954	689.9399	0.66851	57.5193	-8.1219	18.6486	6.3838	45.8004	-0.0592	0.0182	-0.0073	-0.0462	0.0165	0.9585
44.822	-12.0409	739.1566	56.6775	-276.5741	-56.8087	713.6034	-0.94042	44.8847	-7.0927	14.5029	6.0393	35.8424	-0.0592	0.0182	-0.0073	-0.0462	0.0165	0.9585
44.8405	-12.4164	771.7458	59.405	-288.9498	-58.9145	740.7403	-2.1675	33.4332	-5.858	10.7719	5.4163	26.8384	-0.0592	0.0182	-0.0073	-0.0462	0.0165	0.9585
44.859	-13.0029	806.1545	62.2953	-301.9726	-61.2045	769.3155	-2.8263	23.5358	-4.5064	7.5711	4.5273	19.0678	-0.0592	0.0182	-0.0073	-0.0462	0.0165	0.9585
44.8775	-13.5773	839.2584	65.1659	-314.4498	-63.4226	796.4245	-2.8587	15.4675	-3.1593	4.9804	3.4487	12.7386	-0.0592	0.0182	-0.0073	-0.0462	0.0165	0.9585
44.896	-13.9249	867.2601	67.8177	-324.9355	-65.3096	818.5952	-2.429	9.3886	-1.9558	3.0413	2.3418	7.9709	-0.0592	0.0182	-0.0073	-0.0462	0.0165	0.9585
44.9145	-13.8864	886.3448	70.039	-331.9827	-66.6288	832.3899	-1.8033	5.2267	-0.99783	1.722	1.3737	4.7119	-0.0592	0.0182	-0.0073	-0.0462	0.0165	0.9585
44.933	-13.3527	893.5825	71.609	-334.4934	-67.1598	835.2136	-1.1569	2.6574	-0.30469	0.91263	0.61528	2.704	-0.0592	0.0182	-0.0073	-0.0462	0.0165	0.9585
44.9515	-12.2717	887.6409	72.3386	-331.9887	-66.7334	825.9338	-0.58874	1.2457	0.15099	0.47007	0.074108	1.5895	-0.0592	0.0182	-0.0073	-0.0462	0.0165	0.9585
44.97	-10.6362	869.1345	72.1154	-324.7391	-65.2677	805.1682	-0.1419	0.53949	0.41784	0.2482	-0.27712	0.99883	-0.0592	0.0182	-0.0073	-0.0462	0.0165	0.9585
44.9885	-8.4588	840.5992	70.9462	-313.7442	-62.7911	775.2348	0.1776	0.12479	0.54978	0.11388	-0.4839	0.59188	-0.0592	0.0182	-0.0073	-0.0462	0.0165	0.9585
45.007	-5.7667	806.0398	68.9907	-300.5508	-59.4685	739.7291	0.3868	-0.34006	0.59896	-0.044187	-0.59695	0.084037	-0.0592	0.0182	-0.0073	-0.0462	0.0165	0.9585
45.0255	-2.5928	770.2229	66.5401	-286.9807	-55.5731	702.8755	0.51413	-1.1086	0.60908	-0.30974	-0.65977	-0.7368	-0.0592	0.0182	-0.0073	-0.0462	0.0165	0.9585
45.044	1.0401	737.8971	63.9312	-274.8398	-51.4064	668.8328	0.59341	-2.3285	0.61359	-0.73195	-0.70544	-1.9881	-0.0592	0.0182	-0.0073	-0.0462	0.0165	0.9585
45.0625	5.1084	713.009	61.4723	-265.6247	-47.2388	641.0257	0.65775	-4.0069	0.63005	-1.3128	-0.75493	-3.6634	-0.0592	0.0182	-0.0073	-0.0462	0.0165	0.9585
45.081	9.5786	698.0387	59.4003	-260.2705	-43.2797	621.585	0.73683	-5.9664	0.65941	-1.9921	-0.81766	-5.5886	-0.0592	0.0182	-0.0073	-0.0462	0.0165	0.9585
45.0995	14.3863	693.5844	57.8621	-258.9911	-39.6731	611.0208	0.85058	-7.7877	0.68875	-2.6275	-0.88639	-7.3609	-0.0592	0.0182	-0.0073	-0.0462	0.0165	0.9585
45.118	19.4097	698.2742	56.9121	-261.2422	-36.5098	608.1906	1.0047	-8.7409	0.68716	-2.9699	-0.93054	-8.2806	-0.0592	0.0182	-0.0073	-0.0462	0.0165	0.9585
45.1365	24.471	709.0418	56.51	-265.8266	-33.829	610.5637	1.1888	-7.7242	0.59988	-2.6389	-0.88917	-7.2937	-0.0592	0.0182	-0.0073	-0.0462	0.0165	0.9585
45.155	29.3551	721.6913	56.5306	-271.1109	-31.6168	614.7214	1.372	-3.2342	0.35262	-1.1132	-0.67393	-2.964	-0.0592	0.0182	-0.0073	-0.0462	0.0165	0.9585
